<?xml version="1.0" encoding="UTF-8" standalone="no" ?>
<!DOCTYPE svg PUBLIC "-//W3C//DTD SVG 1.1//EN" "http://www.w3.org/Graphics/SVG/1.1/DTD/svg11.dtd">
<svg xmlns="http://www.w3.org/2000/svg" xmlns:xlink="http://www.w3.org/1999/xlink" version="1.1" width="1080" height="1080" viewBox="0 0 1080 1080" xml:space="preserve">
<desc>Created with Fabric.js 5.2.4</desc>
<defs>
</defs>
<rect x="0" y="0" width="100%" height="100%" fill="transparent"></rect>
<g transform="matrix(1 0 0 1 540 540)" id="757350e6-4419-446e-afc9-73327bf6e896"  >
<rect style="stroke: none; stroke-width: 1; stroke-dasharray: none; stroke-linecap: butt; stroke-dashoffset: 0; stroke-linejoin: miter; stroke-miterlimit: 4; fill: rgb(255,255,255); fill-rule: nonzero; opacity: 1; visibility: hidden;" vector-effect="non-scaling-stroke"  x="-540" y="-540" rx="0" ry="0" width="1080" height="1080" />
</g>
<g transform="matrix(1 0 0 1 540 540)" id="553fc39d-90dc-4980-8152-e498e928fa9e"  >
</g>
<g transform="matrix(33.75 0 0 33.75 540 540)" id="SVGRepo_iconCarrier"  >
<path style="stroke: none; stroke-width: 1; stroke-dasharray: none; stroke-linecap: butt; stroke-dashoffset: 0; stroke-linejoin: miter; stroke-miterlimit: 4; fill: rgb(255,255,255); fill-rule: nonzero; opacity: 1;"  transform=" translate(-16, -16)" d="M 17 3 L 3 17 L 15 29 L 29 15 L 29 3 L 17 3 z M 16.0498047 18.949707 L 12.0498047 18.949707 C 11.497070299999999 18.949707 11.0498047 18.5019531 11.0498047 17.949707 C 11.0498047 17.3974609 11.497070299999999 16.949707 12.0498047 16.949707 L 16.0498047 16.949707 C 16.602539099999998 16.949707 17.0498047 17.3974609 17.0498047 17.949707 C 17.0498047 18.5019531 16.6025391 18.949707 16.0498047 18.949707 z M 23 11.666626 C 22.2636108 12.4030152 21.0697021 12.4030152 20.333313 11.666626 C 19.5969238 10.930297900000001 19.5969238 9.736389200000001 20.333313 9 C 21.069702200000002 8.263610799999999 22.2636108 8.2636108 23 9 C 23.7363892 9.7363892 23.7363892 10.9302979 23 11.666626 z" stroke-linecap="round" />
</g>
</svg>